PathFileType	4	(X/Y/Z)	/Users/niels/Desktop/University/Third Semester/Perception and Action/Exam/Gymnastics Motion Tracking/Code for Gym Tracking/Analyzed Data/Start Salto/stsalto_bad_id7_1_Sports2D/stsalto_bad_id7_1_Sports2D_px_person00.trc
DataRate	CameraRate	NumFrames	NumMarkers	Units	OrigDataRate	OrigDataStartFrame	OrigNumFrames
29.88505747126437	29.88505747126437	9	22	m	29.88505747126437	195	261
Frame#	Time	Hip			RHip			RKnee			RAnkle			RBigToe			RSmallToe			RHeel			LHip			LKnee			LAnkle			LBigToe			LSmallToe			LHeel			Neck			Head			Nose			RShoulder			RElbow			RWrist			LShoulder			LElbow			LWrist		
		X1	Y1	Z1	X2	Y2	Z2	X3	Y3	Z3	X4	Y4	Z4	X5	Y5	Z5	X6	Y6	Z6	X7	Y7	Z7	X8	Y8	Z8	X9	Y9	Z9	X10	Y10	Z10	X11	Y11	Z11	X12	Y12	Z12	X13	Y13	Z13	X14	Y14	Z14	X15	Y15	Z15	X16	Y16	Z16	X17	Y17	Z17	X18	Y18	Z18	X19	Y19	Z19	X20	Y20	Z20	X21	Y21	Z21	X22	Y22	Z22
195	6.5249999999999995	1.290560399547141	-0.5831311096090146	0.0	1.2840007687827222	-0.594687884279473	0.0	1.426785115728243	-0.6481476364049555	0.0	1.4311587444416873	-0.7890350726288541	0.0	1.4930321423621047	-0.8074434811649537	0.0	1.4795537066273332	-0.8170091698379394	0.0	1.4178610276179546	-0.8068717619953605	0.0	1.302091423788424	-0.5700469960966359	0.0	1.4278655869699932	-0.5741227169718106	0.0	1.4703520362587452	-0.7040102412534279	0.0	1.5244678728222343	-0.7250176931494378	0.0	1.5193283319291906	-0.716618030872077	0.0	1.468014361835602	-0.7234544668993043	0.0	1.1636848636081292	-0.46651736616042633	0.0	1.105272057520269	-0.39229790381159224	0.0	1.1667167772805274	-0.4127607054422218	0.0	1.1629836749500284	-0.48611888456975993	0.0	1.1833930557211703	-0.5693168023326374	0.0	1.2765936538385236	-0.5706705432292053	0.0	1.1785476417554404	-0.47458643064265127	0.0	1.2332662469052498	-0.5237065893274048	0.0	1.2730020117248282	-0.46724468253549994	0.0
196	6.558461538461538	1.296876834995644	-0.5872796440885943	0.0	1.2899922594610866	-0.5976070151769342	0.0	1.430120349672008	-0.6566622678082891	0.0	1.4280787197948142	-0.7962029275423896	0.0	1.490249664069078	-0.8114641932923937	0.0	1.4766168857834407	-0.8210577800189278	0.0	1.4150973556367967	-0.8146582501749234	0.0	1.3084524845845946	-0.575683012426317	0.0	1.4348249346576123	-0.5894145959957907	0.0	1.467549877888612	-0.7216852088826125	0.0	1.5217767720206283	-0.7446722704054888	0.0	1.5160832822742838	-0.7366329809043386	0.0	1.4640027431760176	-0.7405661838137403	0.0	1.17520254546078	-0.463132670927976	0.0	1.1176935079501755	-0.3881012408794383	0.0	1.1783789587138414	-0.40787756418253995	0.0	1.1751496443673946	-0.4825967554276721	0.0	1.1848092900461031	-0.566440485681379	0.0	1.277109863877198	-0.5728008763768989	0.0	1.1911521629429769	-0.47252802226963353	0.0	1.2423411207877182	-0.5272512274244123	0.0	1.286161860838603	-0.47488662423526135	0.0
197	6.591923076923076	1.3026142330476447	-0.5919095293127152	0.0	1.2957269785306207	-0.6009515556622452	0.0	1.4342271162413585	-0.662804883886881	0.0	1.4262668350823478	-0.800181568400375	0.0	1.488028446533962	-0.8135947191652668	0.0	1.4746222692665996	-0.8228790318034446	0.0	1.413751634512384	-0.8190341084035874	0.0	1.3136614755260738	-0.581652707319655	0.0	1.4408054245990705	-0.6044607384756479	0.0	1.4639334823907697	-0.7377522105858715	0.0	1.5184293343879398	-0.7619747820877311	0.0	1.5122156531338746	-0.7544248676746534	0.0	1.4586066781751648	-0.7566327757586887	0.0	1.186774224224734	-0.4601403503477102	0.0	1.130925197785611	-0.38443367583554955	0.0	1.1902043453845887	-0.4038307761822983	0.0	1.1877667719607732	-0.4795031693348008	0.0	1.186735060849342	-0.5632346713884477	0.0	1.2772994495884802	-0.5754881052596362	0.0	1.2035627794465786	-0.4711059521404933	0.0	1.2507241646388043	-0.5305878748288156	0.0	1.2988996858409703	-0.48282436024322767	0.0
198	6.625384615384615	1.3077658208556655	-0.5973279462142086	0.0	1.3011165861575504	-0.6048508884688839	0.0	1.4395808061858406	-0.6662852844181332	0.0	1.4261593127539938	-0.801050234863057	0.0	1.486696536144491	-0.8144540879485002	0.0	1.473944436240872	-0.8229730238298614	0.0	1.4138439074539229	-0.8200805375235196	0.0	1.3175955121965106	-0.5882448343405721	0.0	1.4461919983366307	-0.6188182477985154	0.0	1.459562999465301	-0.7519794648069646	0.0	1.5145087834844952	-0.7767792355133016	0.0	1.5076333685944912	-0.7697721440855202	0.0	1.4518491847938764	-0.7712000471442826	0.0	1.1986371033694578	-0.4574573677598202	0.0	1.1450923416760854	-0.38115573878373493	0.0	1.2026571822127483	-0.40058895299732866	0.0	1.200678939426995	-0.4768232270922023	0.0	1.1895302582197433	-0.5599318488123264	0.0	1.2777159257399509	-0.5789830047925365	0.0	1.2156477359337114	-0.47032241273098274	0.0	1.2583968249639232	-0.5339710294927991	0.0	1.3116171849002574	-0.49110540583280976	0.0
199	6.658846153846153	1.3125840016476378	-0.603443322666345	0.0	1.3063430217930807	-0.6091889983485078	0.0	1.4463784734587808	-0.667320681191432	0.0	1.4276605112243663	-0.7994588431389149	0.0	1.4864671119614599	-0.8144439596083904	0.0	1.47470306610192	-0.8218972038325679	0.0	1.415001482485247	-0.8185187809068784	0.0	1.3205467275254945	-0.5954123626980302	0.0	1.4514816042331822	-0.6318166626741523	0.0	1.4545537982099008	-0.7639588633912108	0.0	1.5101531981143237	-0.788762372424917	0.0	1.502293039618124	-0.7823000554253448	0.0	1.4438474374094916	-0.7835307282161782	0.0	1.2109802462445172	-0.4550461462830978	0.0	1.1602699174913054	-0.37814901580797405	0.0	1.216088396390244	-0.3979601311355366	0.0	1.2137458063154904	-0.4745001102063784	0.0	1.1933585925918555	-0.5567811069656304	0.0	1.2787388474702261	-0.5834501209452227	0.0	1.227361015416807	-0.47002585090144317	0.0	1.2656097340148085	-0.5374282918449188	0.0	1.3245561379389834	-0.4999061402256487	0.0
200	6.692307692307692	1.3172503010117018	-0.6097568572190365	0.0	1.3115225975494167	-0.6136216168607894	0.0	1.454387844124441	-0.6664793902704591	0.0	1.4302527342110123	-0.7963391783593723	0.0	1.4875017714128789	-0.8137417082735033	0.0	1.4768386925488255	-0.8201825937395062	0.0	1.416729251623828	-0.8154013297256751	0.0	1.3229981037861591	-0.602656693751841	0.0	1.4569914696738846	-0.6424154684045263	0.0	1.449341695761197	-0.7730502295492051	0.0	1.5056267234015295	-0.7975844997796095	0.0	1.4964942238228163	-0.7916582437786516	0.0	1.4351609109636814	-0.7927533715803551	0.0	1.2237187335742472	-0.4529545162807476	0.0	1.1763843984558093	-0.3754181393156022	0.0	1.2304803749585724	-0.39583864690938053	0.0	1.2266494027128352	-0.47257279955092496	0.0	1.1982411167208504	-0.5539528226888303	0.0	1.280381968354694	-0.588908102025357	0.0	1.2386701024196727	-0.47000872799167465	0.0	1.2727583829729712	-0.5407888586448855	0.0	1.3376654454685082	-0.5092389735630564	0.0
201	6.72576923076923	1.3217302147223662	-0.6155412176022473	0.0	1.316585554467757	-0.6177645179042894	0.0	1.4629643550297746	-0.6644583083774873	0.0	1.4332779888757614	-0.7925302066691454	0.0	1.4895908777669906	-0.8125091041071741	0.0	1.4798278926649928	-0.8182508879565991	0.0	1.4186480503455556	-0.8116388113750099	0.0	1.3254670859118123	-0.6092011610484979	0.0	1.4626994788465981	-0.6496605248777699	0.0	1.4447100786660914	-0.7788033306093685	0.0	1.5014667456209698	-0.8031866352794499	0.0	1.4910480235484322	-0.7977855791272688	0.0	1.4269877458296267	-0.7983743329424975	0.0	1.236565404050863	-0.45121694647117105	0.0	1.1931427994081096	-0.37305089995969687	0.0	1.2454660786156027	-0.3942253960291232	0.0	1.2390212604993394	-0.4711514994312082	0.0	1.2041310280754303	-0.5515010056700583	0.0	1.2822328106513885	-0.595181603287424	0.0	1.2496175957604896	-0.4700865934831015	0.0	1.2802162064515017	-0.5438549637683863	0.0	1.3506360912838502	-0.5189269211263513	0.0
202	6.7592307692307685	1.3258705931769295	-0.6201404741662818	0.0	1.3213736444695316	-0.6213376054434797	0.0	1.4713543542614693	-0.661867505293571	0.0	1.4362085855849547	-0.7885560345347497	0.0	1.4921385187025848	-0.8109593113285418	0.0	1.482838324406724	-0.816325279877814	0.0	1.4205687998846621	-0.8077624325042777	0.0	1.3283898599006094	-0.6143652305738385	0.0	1.468362262156891	-0.6532635115585894	0.0	1.4414808809345205	-0.7813079454586346	0.0	1.4983764982341095	-0.8059256715575444	0.0	1.4870186369002336	-0.8010033297522864	0.0	1.4207654270706276	-0.8005722413575543	0.0	1.2492938766516766	-0.4498146028104501	0.0	1.2101905185704018	-0.3710991706574791	0.0	1.2606165914024863	-0.393170990055198	0.0	1.2507390843543038	-0.47030640094719617	0.0	1.2109734450528877	-0.549393005271495	0.0	1.2836289628971442	-0.6019377902761993	0.0	1.2604109751634447	-0.47013568104637893	0.0	1.2881068832945894	-0.5465160995505207	0.0	1.3630261826382661	-0.52883668893332	0.0
203	6.792692307692307	1.329601221325208	-0.6232347206195742	0.0	1.3257981998343094	-0.6241815506520962	0.0	1.4790769922265068	-0.6591137625770424	0.0	1.438820065553886	-0.7846269558477217	0.0	1.4946620584731023	-0.8092550352538357	0.0	1.4853566075239084	-0.8144197840389367	0.0	1.4224561096197577	-0.8039794415244854	0.0	1.332027579528602	-0.6178822825551213	0.0	1.4737295403727377	-0.6536763638758399	0.0	1.4401193692257042	-0.7811430360289662	0.0	1.4968544410098197	-0.8064149707513218	0.0	1.48513531123216	-0.8018603931531512	0.0	1.4173870677477713	-0.800020765424462	0.0	1.2618690440462117	-0.4487163004474036	0.0	1.2273948198733762	-0.36957344466261494	0.0	1.275749245111108	-0.39270927151380686	0.0	1.262035845218342	-0.4699902509962148	0.0	1.2187463430588874	-0.5475736373238734	0.0	1.2840133725209666	-0.6087917040052814	0.0	1.271330305485331	-0.47009988410458714	0.0	1.2961437506497169	-0.5487340787353416	0.0	1.3741828818437014	-0.5390783414082727	0.0
